2.2Hz3min_grf.mot
version=1
nRows=20
nColumns 19
inDegrees=yes
endheader
time	1_ground_force_vx	1_ground_force_vy	1_ground_force_vz	1_ground_force_px	1_ground_force_py	1_ground_force_pz	1_ground_torque_x	1_ground_torque_y	1_ground_torque_z	2_ground_force_vx	2_ground_force_vy	2_ground_force_vz	2_ground_force_px	2_ground_force_py	2_ground_force_pz	2_ground_torque_x	2_ground_torque_y	2_ground_torque_z
            0.005000	            0.361480	           12.623780	           -1.139057	           -0.206207	            0.006017	           -0.356027	           -0.020784	           -0.725818	            0.065491	           -2.819580	           -8.007528	           22.076098	           -0.072577	            0.006735	           -0.841756	            2.066480	           -5.376006	           -1.320760
            0.005500	            0.362277	           12.622404	           -0.818065	           -0.199277	            0.006020	           -0.356654	           -0.023401	           -0.815320	            0.052841	           -2.960732	           -7.824389	           22.217599	           -0.072577	            0.006735	           -0.841756	            2.066463	           -5.375871	           -1.358460
            0.006000	            0.408872	           10.999235	           -0.641712	           -0.197437	            0.006056	           -0.364963	           -0.032915	           -0.885467	            0.051660	           -3.146905	           -8.192526	           21.981725	           -0.072577	            0.006735	           -0.841756	            2.141340	           -5.300046	           -1.339372
            0.006500	            0.683765	           11.900616	           -0.638530	           -0.203432	            0.006073	           -0.369046	           -0.049271	           -0.857548	            0.046012	           -3.100761	           -8.007873	           21.888505	           -0.072577	            0.006735	           -0.841756	            2.104076	           -5.385256	           -1.339660
            0.007000	            0.866484	           12.983032	           -0.817771	           -0.205669	            0.006042	           -0.361962	           -0.054018	           -0.809390	            0.050982	           -2.818209	           -8.376159	           22.168640	           -0.072577	            0.006735	           -0.841756	            2.047559	           -5.347447	           -1.396052
            0.007500	            0.315329	           12.444095	           -1.277283	           -0.210065	            0.006017	           -0.356335	           -0.019409	           -0.765970	            0.078621	           -3.148940	           -7.639746	           21.889840	           -0.072577	            0.006735	           -0.841756	            2.103992	           -5.366216	           -1.377293
            0.008000	            0.360342	           12.625746	           -1.597616	           -0.196677	            0.006000	           -0.351718	           -0.021567	           -0.755675	            0.095620	           -2.959526	           -8.191682	           21.934717	           -0.072577	            0.006735	           -0.841756	            2.160322	           -5.356627	           -1.358433
            0.008500	            0.407113	           11.903316	           -1.279830	           -0.204397	            0.006061	           -0.366292	           -0.026632	           -0.778667	            0.083721	           -3.007644	           -7.824056	           22.076835	           -0.072577	            0.006735	           -0.841756	            2.122478	           -5.281141	           -1.358147
            0.009000	            0.224521	           12.622770	           -0.909436	           -0.209308	            0.006023	           -0.357759	           -0.014959	           -0.841005	            0.060592	           -2.914006	           -7.823216	           21.936011	           -0.072577	            0.006735	           -0.841756	            2.141513	           -5.365677	           -1.490410
            0.009500	            0.316500	           12.261863	           -0.819497	           -0.198764	            0.006033	           -0.359517	           -0.021869	           -0.847256	            0.056625	           -3.056405	           -7.272450	           22.266539	           -0.072577	            0.006735	           -0.841756	            2.179132	           -5.356761	           -1.301890
            0.010000	            0.500019	           12.081436	           -0.774869	           -0.200605	            0.006030	           -0.358944	           -0.035687	           -0.862268	            0.055303	           -3.055179	           -7.639910	           22.030584	           -0.072577	            0.006735	           -0.841756	            2.122742	           -5.347511	           -1.301833
            0.010500	            0.591720	           12.622055	           -0.726922	           -0.201190	            0.006050	           -0.363585	           -0.039755	           -0.848009	            0.048838	           -3.009055	           -7.455090	           21.890437	           -0.072577	            0.006735	           -0.841756	            2.197919	           -5.375060	           -1.452767
            0.011000	            0.773905	           12.263721	           -1.233338	           -0.207497	            0.006058	           -0.365840	           -0.044499	           -0.705151	            0.070916	           -3.010926	           -6.903649	           22.173977	           -0.072577	            0.006735	           -0.841756	            2.141647	           -5.385120	           -1.339676
            0.011500	            0.452875	           11.723256	           -1.326573	           -0.201906	            0.006056	           -0.365051	           -0.027589	           -0.714175	            0.080814	           -2.679777	           -7.822203	           21.888983	           -0.072577	            0.006735	           -0.841756	            2.179047	           -5.337721	           -1.339523
            0.012000	            0.314810	           11.543946	           -1.556284	           -0.212043	            0.006056	           -0.365390	           -0.020901	           -0.766423	            0.103324	           -2.820265	           -7.823212	           22.029827	           -0.072577	            0.006735	           -0.841756	            2.066336	           -5.347312	           -1.414910
            0.012500	            0.361351	           12.083376	           -1.233087	           -0.198591	            0.006073	           -0.368919	           -0.023869	           -0.798175	            0.081452	           -3.193070	           -8.377010	           22.028016	           -0.072577	            0.006735	           -0.841756	            2.141486	           -5.347108	           -1.396092
            0.013000	            0.316288	           12.802857	           -0.863034	           -0.199056	            0.006015	           -0.355281	           -0.022139	           -0.896155	            0.060409	           -3.053767	           -8.008876	           22.216982	           -0.072577	            0.006735	           -0.841756	            2.141647	           -5.385120	           -1.339676
            0.013500	            0.362343	           12.261872	           -0.819611	           -0.197158	            0.006028	           -0.358286	           -0.025496	           -0.862812	            0.057672	           -2.960773	           -7.824054	           22.123743	           -0.072577	            0.006735	           -0.841756	            2.122744	           -5.365879	           -1.452702
            0.014000	            0.637467	           11.901394	           -0.821840	           -0.201066	            0.006046	           -0.362777	           -0.041882	           -0.781926	            0.053995	           -3.008994	           -7.455592	           22.031221	           -0.072577	            0.006735	           -0.841756	            2.104050	           -5.375870	           -1.320776
            0.014500	            0.820515	           11.181153	           -1.008810	           -0.201111	            0.006106	           -0.376563	           -0.054178	           -0.738284	            0.066611	           -3.052521	           -8.376503	           22.027956	           -0.072577	            0.006735	           -0.841756	            2.122759	           -5.356830	           -1.339567
